<mxfile host="app.diagrams.net" agent="Mozilla/5.0 (X11; Linux x86_64) AppleWebKit/537.36 (KHTML, like Gecko) Chrome/127.0.0.0 Safari/537.36" version="24.7.7">
  <diagram name="Page-1" id="Xpj0DDK2_0RdWpO3gDHL">
    <mxGraphModel dx="1209" dy="1859" grid="1" gridSize="10" guides="1" tooltips="1" connect="1" arrows="1" fold="1" page="1" pageScale="1" pageWidth="850" pageHeight="1100" math="0" shadow="0">
      <root>
        <mxCell id="0" />
        <mxCell id="1" parent="0" />
        <mxCell id="pNb5Fok0RQAKNoks9KyP-1" value="DB" style="shape=cylinder3;whiteSpace=wrap;html=1;boundedLbl=1;backgroundOutline=1;size=15;" vertex="1" parent="1">
          <mxGeometry x="1179" y="227" width="60" height="80" as="geometry" />
        </mxCell>
        <mxCell id="pNb5Fok0RQAKNoks9KyP-2" value="API" style="rounded=0;whiteSpace=wrap;html=1;rotation=-90;fillColor=#6BFF7F;" vertex="1" parent="1">
          <mxGeometry x="936" y="231" width="120" height="60" as="geometry" />
        </mxCell>
        <mxCell id="pNb5Fok0RQAKNoks9KyP-3" value="User" style="shape=umlActor;verticalLabelPosition=bottom;verticalAlign=top;html=1;outlineConnect=0;fontStyle=1" vertex="1" parent="1">
          <mxGeometry x="40" y="238" width="30" height="60" as="geometry" />
        </mxCell>
        <mxCell id="pNb5Fok0RQAKNoks9KyP-4" value="Load balancer" style="outlineConnect=0;dashed=0;verticalLabelPosition=bottom;verticalAlign=top;align=center;html=1;shape=mxgraph.aws3.classic_load_balancer;fillColor=#F58534;gradientColor=none;" vertex="1" parent="1">
          <mxGeometry x="749" y="231" width="69" height="72" as="geometry" />
        </mxCell>
        <mxCell id="pNb5Fok0RQAKNoks9KyP-5" value="Laptop" style="fontColor=#0066CC;verticalAlign=top;verticalLabelPosition=bottom;labelPosition=center;align=center;html=1;outlineConnect=0;fillColor=#000000;strokeColor=#6881B3;gradientColor=none;gradientDirection=north;strokeWidth=2;shape=mxgraph.networks.laptop;fontStyle=1" vertex="1" parent="1">
          <mxGeometry x="221" y="249" width="100" height="55" as="geometry" />
        </mxCell>
        <mxCell id="pNb5Fok0RQAKNoks9KyP-8" value="" style="endArrow=classic;html=1;rounded=0;exitX=0.5;exitY=0.5;exitDx=0;exitDy=0;exitPerimeter=0;entryX=0.2;entryY=0.382;entryDx=0;entryDy=0;entryPerimeter=0;" edge="1" parent="1" source="pNb5Fok0RQAKNoks9KyP-3" target="pNb5Fok0RQAKNoks9KyP-5">
          <mxGeometry width="50" height="50" relative="1" as="geometry">
            <mxPoint x="420" y="420" as="sourcePoint" />
            <mxPoint x="470" y="370" as="targetPoint" />
          </mxGeometry>
        </mxCell>
        <mxCell id="pNb5Fok0RQAKNoks9KyP-9" value="" style="endArrow=classic;html=1;rounded=0;exitX=0.85;exitY=0.5;exitDx=0;exitDy=0;exitPerimeter=0;entryX=0;entryY=0.5;entryDx=0;entryDy=0;entryPerimeter=0;" edge="1" parent="1" target="pNb5Fok0RQAKNoks9KyP-4">
          <mxGeometry width="50" height="50" relative="1" as="geometry">
            <mxPoint x="575" y="267.5" as="sourcePoint" />
            <mxPoint x="739" y="361" as="targetPoint" />
          </mxGeometry>
        </mxCell>
        <mxCell id="pNb5Fok0RQAKNoks9KyP-10" value="" style="endArrow=classic;html=1;rounded=0;exitX=1;exitY=0.5;exitDx=0;exitDy=0;exitPerimeter=0;entryX=0.442;entryY=-0.05;entryDx=0;entryDy=0;entryPerimeter=0;" edge="1" parent="1" source="pNb5Fok0RQAKNoks9KyP-4" target="pNb5Fok0RQAKNoks9KyP-2">
          <mxGeometry width="50" height="50" relative="1" as="geometry">
            <mxPoint x="689" y="411" as="sourcePoint" />
            <mxPoint x="739" y="361" as="targetPoint" />
          </mxGeometry>
        </mxCell>
        <mxCell id="pNb5Fok0RQAKNoks9KyP-11" value="" style="endArrow=classic;html=1;rounded=0;exitX=1;exitY=0.5;exitDx=0;exitDy=0;exitPerimeter=0;entryX=0.442;entryY=-0.05;entryDx=0;entryDy=0;entryPerimeter=0;" edge="1" parent="1">
          <mxGeometry width="50" height="50" relative="1" as="geometry">
            <mxPoint x="1030" y="268.5" as="sourcePoint" />
            <mxPoint x="1178" y="269.5" as="targetPoint" />
          </mxGeometry>
        </mxCell>
        <mxCell id="pNb5Fok0RQAKNoks9KyP-12" value="Low Level Architecture" style="text;html=1;align=center;verticalAlign=middle;whiteSpace=wrap;rounded=0;fontStyle=1" vertex="1" parent="1">
          <mxGeometry x="410" y="150" width="160" height="30" as="geometry" />
        </mxCell>
        <mxCell id="pNb5Fok0RQAKNoks9KyP-13" value="High Level Architecture" style="text;html=1;align=center;verticalAlign=middle;whiteSpace=wrap;rounded=0;fontStyle=1" vertex="1" parent="1">
          <mxGeometry x="410" y="-260" width="160" height="30" as="geometry" />
        </mxCell>
        <mxCell id="pNb5Fok0RQAKNoks9KyP-14" value="API" style="rounded=0;whiteSpace=wrap;html=1;rotation=-90;fillColor=#6BFF7F;" vertex="1" parent="1">
          <mxGeometry x="365" y="-150" width="120" height="60" as="geometry" />
        </mxCell>
        <mxCell id="pNb5Fok0RQAKNoks9KyP-15" value="DB" style="shape=cylinder3;whiteSpace=wrap;html=1;boundedLbl=1;backgroundOutline=1;size=15;" vertex="1" parent="1">
          <mxGeometry x="603" y="-170" width="60" height="80" as="geometry" />
        </mxCell>
        <mxCell id="pNb5Fok0RQAKNoks9KyP-16" value="" style="endArrow=classic;html=1;rounded=0;exitX=1;exitY=0.5;exitDx=0;exitDy=0;exitPerimeter=0;entryX=0.442;entryY=-0.05;entryDx=0;entryDy=0;entryPerimeter=0;" edge="1" parent="1">
          <mxGeometry width="50" height="50" relative="1" as="geometry">
            <mxPoint x="455" y="-130" as="sourcePoint" />
            <mxPoint x="603" y="-129" as="targetPoint" />
          </mxGeometry>
        </mxCell>
        <mxCell id="pNb5Fok0RQAKNoks9KyP-19" value="Web application" style="rounded=1;whiteSpace=wrap;html=1;fontStyle=1;fillColor=#FFD45E;" vertex="1" parent="1">
          <mxGeometry x="455" y="240" width="120" height="60" as="geometry" />
        </mxCell>
        <mxCell id="pNb5Fok0RQAKNoks9KyP-20" value="" style="endArrow=classic;html=1;rounded=0;entryX=0.5;entryY=0;entryDx=0;entryDy=0;" edge="1" parent="1">
          <mxGeometry width="50" height="50" relative="1" as="geometry">
            <mxPoint x="230" y="-132" as="sourcePoint" />
            <mxPoint x="395" y="-132" as="targetPoint" />
          </mxGeometry>
        </mxCell>
        <mxCell id="pNb5Fok0RQAKNoks9KyP-21" value="" style="endArrow=classic;html=1;rounded=0;" edge="1" parent="1">
          <mxGeometry width="50" height="50" relative="1" as="geometry">
            <mxPoint x="305" y="270" as="sourcePoint" />
            <mxPoint x="455" y="270" as="targetPoint" />
          </mxGeometry>
        </mxCell>
        <mxCell id="pNb5Fok0RQAKNoks9KyP-24" value="Web application" style="rounded=1;whiteSpace=wrap;html=1;fillColor=#FFD45E;" vertex="1" parent="1">
          <mxGeometry x="120" y="-160" width="120" height="60" as="geometry" />
        </mxCell>
      </root>
    </mxGraphModel>
  </diagram>
</mxfile>
